<svg width="18" height="18" viewBox="0 0 18 18" fill="none" xmlns="http://www.w3.org/2000/svg">
<path fill-rule="evenodd" clip-rule="evenodd" d="M3.56023 13.5079C0.813257 10.7609 0.813257 6.3072 3.56023 3.56023C6.3072 0.813256 10.7609 0.813256 13.5079 3.56023C16.2421 6.29444 16.2548 10.7196 13.546 13.4695C13.5327 13.481 13.5198 13.4931 13.5072 13.5057C13.4945 13.5184 13.4824 13.5314 13.4708 13.5447C10.721 16.2548 6.29488 16.2425 3.56023 13.5079ZM14.016 15.0753C10.6631 17.8918 5.65388 17.7229 2.49957 14.5686C-0.83319 11.2358 -0.83319 5.83233 2.49957 2.49957C5.83233 -0.83319 11.2358 -0.83319 14.5686 2.49957C17.7224 5.65339 17.8917 10.6615 15.0766 14.0145L16.765 15.703C17.0579 15.9958 17.0579 16.4707 16.765 16.7636C16.4722 17.0565 15.9973 17.0565 15.7044 16.7636L14.016 15.0753Z" fill="#5A5A5A"/>
</svg>
